<mxfile host="app.diagrams.net" modified="2023-03-15T22:12:08.441Z" agent="5.0 (X11; Linux x86_64) AppleWebKit/537.36 (KHTML, like Gecko) Chrome/111.0.0.0 Safari/537.36" etag="ujiemBrEdZXV2ouvHaq_" version="21.0.6" type="github">
  <diagram id="C5RBs43oDa-KdzZeNtuy" name="Page-1">
    <mxGraphModel dx="3894" dy="2304" grid="1" gridSize="10" guides="1" tooltips="1" connect="1" arrows="1" fold="1" page="1" pageScale="1" pageWidth="827" pageHeight="1169" math="0" shadow="0">
      <root>
        <mxCell id="WIyWlLk6GJQsqaUBKTNV-0" />
        <mxCell id="WIyWlLk6GJQsqaUBKTNV-1" parent="WIyWlLk6GJQsqaUBKTNV-0" />
        <mxCell id="NI7jRPyzwke9U2gwdfVe-32" value="Model" style="swimlane;fontStyle=2;align=center;verticalAlign=top;childLayout=stackLayout;horizontal=1;startSize=29;horizontalStack=0;resizeParent=1;resizeLast=0;collapsible=1;marginBottom=0;rounded=0;shadow=0;strokeWidth=1;" parent="WIyWlLk6GJQsqaUBKTNV-1" vertex="1">
          <mxGeometry x="-660" y="43" width="280" height="393" as="geometry">
            <mxRectangle x="550" y="140" width="160" height="26" as="alternateBounds" />
          </mxGeometry>
        </mxCell>
        <mxCell id="o1w42rzj_JhDo4H0_FvO-0" value="+loadImage(String, String): void" style="text;align=left;verticalAlign=top;spacingLeft=4;spacingRight=4;overflow=hidden;rotatable=0;points=[[0,0.5],[1,0.5]];portConstraint=eastwest;" parent="NI7jRPyzwke9U2gwdfVe-32" vertex="1">
          <mxGeometry y="29" width="280" height="26" as="geometry" />
        </mxCell>
        <mxCell id="o1w42rzj_JhDo4H0_FvO-1" value="+saveImage(String, String): void" style="text;align=left;verticalAlign=top;spacingLeft=4;spacingRight=4;overflow=hidden;rotatable=0;points=[[0,0.5],[1,0.5]];portConstraint=eastwest;" parent="NI7jRPyzwke9U2gwdfVe-32" vertex="1">
          <mxGeometry y="55" width="280" height="26" as="geometry" />
        </mxCell>
        <mxCell id="NI7jRPyzwke9U2gwdfVe-34" value="+getRedComponent(String, String): void" style="text;align=left;verticalAlign=top;spacingLeft=4;spacingRight=4;overflow=hidden;rotatable=0;points=[[0,0.5],[1,0.5]];portConstraint=eastwest;" parent="NI7jRPyzwke9U2gwdfVe-32" vertex="1">
          <mxGeometry y="81" width="280" height="26" as="geometry" />
        </mxCell>
        <mxCell id="NI7jRPyzwke9U2gwdfVe-35" value="+getGreenComponent(String, String): void" style="text;align=left;verticalAlign=top;spacingLeft=4;spacingRight=4;overflow=hidden;rotatable=0;points=[[0,0.5],[1,0.5]];portConstraint=eastwest;rounded=0;shadow=0;html=0;" parent="NI7jRPyzwke9U2gwdfVe-32" vertex="1">
          <mxGeometry y="107" width="280" height="26" as="geometry" />
        </mxCell>
        <mxCell id="NI7jRPyzwke9U2gwdfVe-36" value="+getBlueComponent(String, String): void" style="text;align=left;verticalAlign=top;spacingLeft=4;spacingRight=4;overflow=hidden;rotatable=0;points=[[0,0.5],[1,0.5]];portConstraint=eastwest;rounded=0;shadow=0;html=0;" parent="NI7jRPyzwke9U2gwdfVe-32" vertex="1">
          <mxGeometry y="133" width="280" height="26" as="geometry" />
        </mxCell>
        <mxCell id="NI7jRPyzwke9U2gwdfVe-37" value="+flipHorizontal(String, String): void" style="text;align=left;verticalAlign=top;spacingLeft=4;spacingRight=4;overflow=hidden;rotatable=0;points=[[0,0.5],[1,0.5]];portConstraint=eastwest;rounded=0;shadow=0;html=0;" parent="NI7jRPyzwke9U2gwdfVe-32" vertex="1">
          <mxGeometry y="159" width="280" height="26" as="geometry" />
        </mxCell>
        <mxCell id="NI7jRPyzwke9U2gwdfVe-38" value="+flipVertical(String, String): void" style="text;align=left;verticalAlign=top;spacingLeft=4;spacingRight=4;overflow=hidden;rotatable=0;points=[[0,0.5],[1,0.5]];portConstraint=eastwest;rounded=0;shadow=0;html=0;" parent="NI7jRPyzwke9U2gwdfVe-32" vertex="1">
          <mxGeometry y="185" width="280" height="26" as="geometry" />
        </mxCell>
        <mxCell id="NI7jRPyzwke9U2gwdfVe-39" value="+getValueImage(String, String): void" style="text;align=left;verticalAlign=top;spacingLeft=4;spacingRight=4;overflow=hidden;rotatable=0;points=[[0,0.5],[1,0.5]];portConstraint=eastwest;rounded=0;shadow=0;html=0;" parent="NI7jRPyzwke9U2gwdfVe-32" vertex="1">
          <mxGeometry y="211" width="280" height="26" as="geometry" />
        </mxCell>
        <mxCell id="NI7jRPyzwke9U2gwdfVe-40" value="+getIntensityImage(String, String): void" style="text;align=left;verticalAlign=top;spacingLeft=4;spacingRight=4;overflow=hidden;rotatable=0;points=[[0,0.5],[1,0.5]];portConstraint=eastwest;rounded=0;shadow=0;html=0;" parent="NI7jRPyzwke9U2gwdfVe-32" vertex="1">
          <mxGeometry y="237" width="280" height="26" as="geometry" />
        </mxCell>
        <mxCell id="NI7jRPyzwke9U2gwdfVe-41" value="+getLumaImage(String, String): void" style="text;align=left;verticalAlign=top;spacingLeft=4;spacingRight=4;overflow=hidden;rotatable=0;points=[[0,0.5],[1,0.5]];portConstraint=eastwest;rounded=0;shadow=0;html=0;" parent="NI7jRPyzwke9U2gwdfVe-32" vertex="1">
          <mxGeometry y="263" width="280" height="26" as="geometry" />
        </mxCell>
        <mxCell id="o1w42rzj_JhDo4H0_FvO-2" value="+brighten(String, String, int): void" style="text;align=left;verticalAlign=top;spacingLeft=4;spacingRight=4;overflow=hidden;rotatable=0;points=[[0,0.5],[1,0.5]];portConstraint=eastwest;rounded=0;shadow=0;html=0;" parent="NI7jRPyzwke9U2gwdfVe-32" vertex="1">
          <mxGeometry y="289" width="280" height="26" as="geometry" />
        </mxCell>
        <mxCell id="o1w42rzj_JhDo4H0_FvO-3" value="+rgbSplit(String, String, String, String): void" style="text;align=left;verticalAlign=top;spacingLeft=4;spacingRight=4;overflow=hidden;rotatable=0;points=[[0,0.5],[1,0.5]];portConstraint=eastwest;rounded=0;shadow=0;html=0;" parent="NI7jRPyzwke9U2gwdfVe-32" vertex="1">
          <mxGeometry y="315" width="280" height="26" as="geometry" />
        </mxCell>
        <mxCell id="o1w42rzj_JhDo4H0_FvO-4" value="+rgbCombine(String, String, String, String): void" style="text;align=left;verticalAlign=top;spacingLeft=4;spacingRight=4;overflow=hidden;rotatable=0;points=[[0,0.5],[1,0.5]];portConstraint=eastwest;rounded=0;shadow=0;html=0;" parent="NI7jRPyzwke9U2gwdfVe-32" vertex="1">
          <mxGeometry y="341" width="280" height="26" as="geometry" />
        </mxCell>
        <mxCell id="o1w42rzj_JhDo4H0_FvO-5" value="+greyscale(String, String, String): void" style="text;align=left;verticalAlign=top;spacingLeft=4;spacingRight=4;overflow=hidden;rotatable=0;points=[[0,0.5],[1,0.5]];portConstraint=eastwest;rounded=0;shadow=0;html=0;" parent="NI7jRPyzwke9U2gwdfVe-32" vertex="1">
          <mxGeometry y="367" width="280" height="26" as="geometry" />
        </mxCell>
        <mxCell id="qI4vOjFpDvR_fsoeFRp5-63" style="edgeStyle=orthogonalEdgeStyle;rounded=0;orthogonalLoop=1;jettySize=auto;html=1;exitX=0.5;exitY=0;exitDx=0;exitDy=0;" edge="1" parent="WIyWlLk6GJQsqaUBKTNV-1" source="NI7jRPyzwke9U2gwdfVe-42">
          <mxGeometry relative="1" as="geometry">
            <mxPoint x="-520" y="443" as="targetPoint" />
          </mxGeometry>
        </mxCell>
        <mxCell id="NI7jRPyzwke9U2gwdfVe-42" value="PPMModel" style="swimlane;fontStyle=0;align=center;verticalAlign=top;childLayout=stackLayout;horizontal=1;startSize=29;horizontalStack=0;resizeParent=1;resizeLast=0;collapsible=1;marginBottom=0;rounded=0;shadow=0;strokeWidth=1;" parent="WIyWlLk6GJQsqaUBKTNV-1" vertex="1">
          <mxGeometry x="-680" y="513" width="320" height="180" as="geometry">
            <mxRectangle x="550" y="140" width="160" height="26" as="alternateBounds" />
          </mxGeometry>
        </mxCell>
        <mxCell id="NI7jRPyzwke9U2gwdfVe-44" value="+PPMModel():Â " style="text;align=left;verticalAlign=top;spacingLeft=4;spacingRight=4;overflow=hidden;rotatable=0;points=[[0,0.5],[1,0.5]];portConstraint=eastwest;" parent="NI7jRPyzwke9U2gwdfVe-42" vertex="1">
          <mxGeometry y="29" width="320" height="26" as="geometry" />
        </mxCell>
        <mxCell id="o1w42rzj_JhDo4H0_FvO-29" value="-compareDimensions(Image, Image): boolean" style="text;align=left;verticalAlign=top;spacingLeft=4;spacingRight=4;overflow=hidden;rotatable=0;points=[[0,0.5],[1,0.5]];portConstraint=eastwest;rounded=0;shadow=0;html=0;" parent="NI7jRPyzwke9U2gwdfVe-42" vertex="1">
          <mxGeometry y="55" width="320" height="26" as="geometry" />
        </mxCell>
        <mxCell id="o1w42rzj_JhDo4H0_FvO-93" value="-flipArrayHoriztonal(Image, int[][]): int[][]" style="text;align=left;verticalAlign=top;spacingLeft=4;spacingRight=4;overflow=hidden;rotatable=0;points=[[0,0.5],[1,0.5]];portConstraint=eastwest;rounded=0;shadow=0;html=0;" parent="NI7jRPyzwke9U2gwdfVe-42" vertex="1">
          <mxGeometry y="81" width="320" height="26" as="geometry" />
        </mxCell>
        <mxCell id="o1w42rzj_JhDo4H0_FvO-94" value="-flipArrayVertical(Image, int[][]): int[][]" style="text;align=left;verticalAlign=top;spacingLeft=4;spacingRight=4;overflow=hidden;rotatable=0;points=[[0,0.5],[1,0.5]];portConstraint=eastwest;rounded=0;shadow=0;html=0;" parent="NI7jRPyzwke9U2gwdfVe-42" vertex="1">
          <mxGeometry y="107" width="320" height="26" as="geometry" />
        </mxCell>
        <mxCell id="o1w42rzj_JhDo4H0_FvO-95" value="-brightenArray(Image, int[][], int): int[][]" style="text;align=left;verticalAlign=top;spacingLeft=4;spacingRight=4;overflow=hidden;rotatable=0;points=[[0,0.5],[1,0.5]];portConstraint=eastwest;rounded=0;shadow=0;html=0;" parent="NI7jRPyzwke9U2gwdfVe-42" vertex="1">
          <mxGeometry y="133" width="320" height="26" as="geometry" />
        </mxCell>
        <mxCell id="o1w42rzj_JhDo4H0_FvO-31" value="Image" style="swimlane;fontStyle=2;align=center;verticalAlign=top;childLayout=stackLayout;horizontal=1;startSize=29;horizontalStack=0;resizeParent=1;resizeLast=0;collapsible=1;marginBottom=0;rounded=0;shadow=0;strokeWidth=1;" parent="WIyWlLk6GJQsqaUBKTNV-1" vertex="1">
          <mxGeometry x="-320" y="300" width="280" height="160" as="geometry">
            <mxRectangle x="550" y="140" width="160" height="26" as="alternateBounds" />
          </mxGeometry>
        </mxCell>
        <mxCell id="o1w42rzj_JhDo4H0_FvO-32" value="+getRedComponent(): int[][]" style="text;align=left;verticalAlign=top;spacingLeft=4;spacingRight=4;overflow=hidden;rotatable=0;points=[[0,0.5],[1,0.5]];portConstraint=eastwest;" parent="o1w42rzj_JhDo4H0_FvO-31" vertex="1">
          <mxGeometry y="29" width="280" height="26" as="geometry" />
        </mxCell>
        <mxCell id="o1w42rzj_JhDo4H0_FvO-33" value="+getGreenComponent(): int[][]" style="text;align=left;verticalAlign=top;spacingLeft=4;spacingRight=4;overflow=hidden;rotatable=0;points=[[0,0.5],[1,0.5]];portConstraint=eastwest;" parent="o1w42rzj_JhDo4H0_FvO-31" vertex="1">
          <mxGeometry y="55" width="280" height="26" as="geometry" />
        </mxCell>
        <mxCell id="o1w42rzj_JhDo4H0_FvO-34" value="+getBlueComponent(): int[][]" style="text;align=left;verticalAlign=top;spacingLeft=4;spacingRight=4;overflow=hidden;rotatable=0;points=[[0,0.5],[1,0.5]];portConstraint=eastwest;" parent="o1w42rzj_JhDo4H0_FvO-31" vertex="1">
          <mxGeometry y="81" width="280" height="26" as="geometry" />
        </mxCell>
        <mxCell id="o1w42rzj_JhDo4H0_FvO-35" value="+getHeight(): int" style="text;align=left;verticalAlign=top;spacingLeft=4;spacingRight=4;overflow=hidden;rotatable=0;points=[[0,0.5],[1,0.5]];portConstraint=eastwest;rounded=0;shadow=0;html=0;" parent="o1w42rzj_JhDo4H0_FvO-31" vertex="1">
          <mxGeometry y="107" width="280" height="26" as="geometry" />
        </mxCell>
        <mxCell id="o1w42rzj_JhDo4H0_FvO-36" value="+getWidth(): int" style="text;align=left;verticalAlign=top;spacingLeft=4;spacingRight=4;overflow=hidden;rotatable=0;points=[[0,0.5],[1,0.5]];portConstraint=eastwest;rounded=0;shadow=0;html=0;" parent="o1w42rzj_JhDo4H0_FvO-31" vertex="1">
          <mxGeometry y="133" width="280" height="26" as="geometry" />
        </mxCell>
        <mxCell id="qI4vOjFpDvR_fsoeFRp5-65" style="edgeStyle=orthogonalEdgeStyle;rounded=0;orthogonalLoop=1;jettySize=auto;html=1;exitX=0.5;exitY=0;exitDx=0;exitDy=0;" edge="1" parent="WIyWlLk6GJQsqaUBKTNV-1" source="o1w42rzj_JhDo4H0_FvO-46">
          <mxGeometry relative="1" as="geometry">
            <mxPoint x="-190" y="470" as="targetPoint" />
          </mxGeometry>
        </mxCell>
        <mxCell id="o1w42rzj_JhDo4H0_FvO-46" value="AbstractImage" style="swimlane;fontStyle=2;align=center;verticalAlign=top;childLayout=stackLayout;horizontal=1;startSize=29;horizontalStack=0;resizeParent=1;resizeLast=0;collapsible=1;marginBottom=0;rounded=0;shadow=0;strokeWidth=1;" parent="WIyWlLk6GJQsqaUBKTNV-1" vertex="1">
          <mxGeometry x="-330" y="568" width="280" height="112" as="geometry">
            <mxRectangle x="550" y="140" width="160" height="26" as="alternateBounds" />
          </mxGeometry>
        </mxCell>
        <mxCell id="o1w42rzj_JhDo4H0_FvO-58" value="+AbstractImage(int, int, int[][], int[][], int[][])" style="text;align=left;verticalAlign=top;spacingLeft=4;spacingRight=4;overflow=hidden;rotatable=0;points=[[0,0.5],[1,0.5]];portConstraint=eastwest;" parent="o1w42rzj_JhDo4H0_FvO-46" vertex="1">
          <mxGeometry y="29" width="280" height="26" as="geometry" />
        </mxCell>
        <mxCell id="o1w42rzj_JhDo4H0_FvO-62" value="+equals(Object): boolean" style="text;align=left;verticalAlign=top;spacingLeft=4;spacingRight=4;overflow=hidden;rotatable=0;points=[[0,0.5],[1,0.5]];portConstraint=eastwest;rounded=0;shadow=0;html=0;" parent="o1w42rzj_JhDo4H0_FvO-46" vertex="1">
          <mxGeometry y="55" width="280" height="26" as="geometry" />
        </mxCell>
        <mxCell id="o1w42rzj_JhDo4H0_FvO-63" value="+hashCode(): int" style="text;align=left;verticalAlign=top;spacingLeft=4;spacingRight=4;overflow=hidden;rotatable=0;points=[[0,0.5],[1,0.5]];portConstraint=eastwest;rounded=0;shadow=0;html=0;" parent="o1w42rzj_JhDo4H0_FvO-46" vertex="1">
          <mxGeometry y="81" width="280" height="26" as="geometry" />
        </mxCell>
        <mxCell id="o1w42rzj_JhDo4H0_FvO-66" value="Controller" style="swimlane;fontStyle=2;align=center;verticalAlign=top;childLayout=stackLayout;horizontal=1;startSize=29;horizontalStack=0;resizeParent=1;resizeLast=0;collapsible=1;marginBottom=0;rounded=0;shadow=0;strokeWidth=1;" parent="WIyWlLk6GJQsqaUBKTNV-1" vertex="1">
          <mxGeometry x="-1400" y="-75" width="280" height="67" as="geometry">
            <mxRectangle x="550" y="140" width="160" height="26" as="alternateBounds" />
          </mxGeometry>
        </mxCell>
        <mxCell id="o1w42rzj_JhDo4H0_FvO-67" value="+run(Model): void" style="text;align=left;verticalAlign=top;spacingLeft=4;spacingRight=4;overflow=hidden;rotatable=0;points=[[0,0.5],[1,0.5]];portConstraint=eastwest;" parent="o1w42rzj_JhDo4H0_FvO-66" vertex="1">
          <mxGeometry y="29" width="280" height="26" as="geometry" />
        </mxCell>
        <mxCell id="qI4vOjFpDvR_fsoeFRp5-68" style="edgeStyle=orthogonalEdgeStyle;rounded=0;orthogonalLoop=1;jettySize=auto;html=1;exitX=0.5;exitY=0;exitDx=0;exitDy=0;entryX=0.5;entryY=1;entryDx=0;entryDy=0;" edge="1" parent="WIyWlLk6GJQsqaUBKTNV-1" source="o1w42rzj_JhDo4H0_FvO-78" target="o1w42rzj_JhDo4H0_FvO-66">
          <mxGeometry relative="1" as="geometry" />
        </mxCell>
        <mxCell id="o1w42rzj_JhDo4H0_FvO-78" value="ImageController" style="swimlane;fontStyle=0;align=center;verticalAlign=top;childLayout=stackLayout;horizontal=1;startSize=29;horizontalStack=0;resizeParent=1;resizeLast=0;collapsible=1;marginBottom=0;rounded=0;shadow=0;strokeWidth=1;" parent="WIyWlLk6GJQsqaUBKTNV-1" vertex="1">
          <mxGeometry x="-1400" y="62" width="280" height="159" as="geometry">
            <mxRectangle x="550" y="140" width="160" height="26" as="alternateBounds" />
          </mxGeometry>
        </mxCell>
        <mxCell id="o1w42rzj_JhDo4H0_FvO-83" value="+ImageController(Readable, Appendable): void" style="text;align=left;verticalAlign=top;spacingLeft=4;spacingRight=4;overflow=hidden;rotatable=0;points=[[0,0.5],[1,0.5]];portConstraint=eastwest;" parent="o1w42rzj_JhDo4H0_FvO-78" vertex="1">
          <mxGeometry y="29" width="280" height="26" as="geometry" />
        </mxCell>
        <mxCell id="o1w42rzj_JhDo4H0_FvO-82" value="+main(String[]): void" style="text;align=left;verticalAlign=top;spacingLeft=4;spacingRight=4;overflow=hidden;rotatable=0;points=[[0,0.5],[1,0.5]];portConstraint=eastwest;fontStyle=4" parent="o1w42rzj_JhDo4H0_FvO-78" vertex="1">
          <mxGeometry y="55" width="280" height="26" as="geometry" />
        </mxCell>
        <mxCell id="o1w42rzj_JhDo4H0_FvO-81" value="-runFromFile(String, Model): String" style="text;align=left;verticalAlign=top;spacingLeft=4;spacingRight=4;overflow=hidden;rotatable=0;points=[[0,0.5],[1,0.5]];portConstraint=eastwest;" parent="o1w42rzj_JhDo4H0_FvO-78" vertex="1">
          <mxGeometry y="81" width="280" height="26" as="geometry" />
        </mxCell>
        <mxCell id="o1w42rzj_JhDo4H0_FvO-86" value="-checkCommands(String[]): boolean" style="text;align=left;verticalAlign=top;spacingLeft=4;spacingRight=4;overflow=hidden;rotatable=0;points=[[0,0.5],[1,0.5]];portConstraint=eastwest;" parent="o1w42rzj_JhDo4H0_FvO-78" vertex="1">
          <mxGeometry y="107" width="280" height="26" as="geometry" />
        </mxCell>
        <mxCell id="qI4vOjFpDvR_fsoeFRp5-64" value="-executeCommands(String[], Model): void" style="text;align=left;verticalAlign=top;spacingLeft=4;spacingRight=4;overflow=hidden;rotatable=0;points=[[0,0.5],[1,0.5]];portConstraint=eastwest;" vertex="1" parent="o1w42rzj_JhDo4H0_FvO-78">
          <mxGeometry y="133" width="280" height="26" as="geometry" />
        </mxCell>
        <mxCell id="qI4vOjFpDvR_fsoeFRp5-67" style="edgeStyle=orthogonalEdgeStyle;rounded=0;orthogonalLoop=1;jettySize=auto;html=1;exitX=0.5;exitY=0;exitDx=0;exitDy=0;entryX=0.5;entryY=1;entryDx=0;entryDy=0;" edge="1" parent="WIyWlLk6GJQsqaUBKTNV-1" source="o1w42rzj_JhDo4H0_FvO-96" target="o1w42rzj_JhDo4H0_FvO-46">
          <mxGeometry relative="1" as="geometry" />
        </mxCell>
        <mxCell id="o1w42rzj_JhDo4H0_FvO-96" value="PPMImage" style="swimlane;fontStyle=4;align=center;verticalAlign=top;childLayout=stackLayout;horizontal=1;startSize=29;horizontalStack=0;resizeParent=1;resizeLast=0;collapsible=1;marginBottom=0;rounded=0;shadow=0;strokeWidth=1;" parent="WIyWlLk6GJQsqaUBKTNV-1" vertex="1">
          <mxGeometry x="-330" y="740" width="280" height="60" as="geometry">
            <mxRectangle x="550" y="140" width="160" height="26" as="alternateBounds" />
          </mxGeometry>
        </mxCell>
        <mxCell id="o1w42rzj_JhDo4H0_FvO-97" value="+PPMImage(int, int, int[][], int[][], int[][])" style="text;align=left;verticalAlign=top;spacingLeft=4;spacingRight=4;overflow=hidden;rotatable=0;points=[[0,0.5],[1,0.5]];portConstraint=eastwest;" parent="o1w42rzj_JhDo4H0_FvO-96" vertex="1">
          <mxGeometry y="29" width="280" height="26" as="geometry" />
        </mxCell>
        <mxCell id="o1w42rzj_JhDo4H0_FvO-109" value="ImageUtil" style="swimlane;fontStyle=0;align=center;verticalAlign=top;childLayout=stackLayout;horizontal=1;startSize=29;horizontalStack=0;resizeParent=1;resizeLast=0;collapsible=1;marginBottom=0;rounded=0;shadow=0;strokeWidth=1;" parent="WIyWlLk6GJQsqaUBKTNV-1" vertex="1">
          <mxGeometry x="-1390" y="318" width="280" height="142" as="geometry">
            <mxRectangle x="550" y="140" width="160" height="26" as="alternateBounds" />
          </mxGeometry>
        </mxCell>
        <mxCell id="o1w42rzj_JhDo4H0_FvO-110" value="+printPPM(String): void" style="text;align=left;verticalAlign=top;spacingLeft=4;spacingRight=4;overflow=hidden;rotatable=0;points=[[0,0.5],[1,0.5]];portConstraint=eastwest;fontStyle=4" parent="o1w42rzj_JhDo4H0_FvO-109" vertex="1">
          <mxGeometry y="29" width="280" height="26" as="geometry" />
        </mxCell>
        <mxCell id="o1w42rzj_JhDo4H0_FvO-111" value="+readIntoPPMImage(String): Image" style="text;align=left;verticalAlign=top;spacingLeft=4;spacingRight=4;overflow=hidden;rotatable=0;points=[[0,0.5],[1,0.5]];portConstraint=eastwest;fontStyle=4" parent="o1w42rzj_JhDo4H0_FvO-109" vertex="1">
          <mxGeometry y="55" width="280" height="26" as="geometry" />
        </mxCell>
        <mxCell id="o1w42rzj_JhDo4H0_FvO-112" value="+writeToPPMFile(Image, String): void" style="text;align=left;verticalAlign=top;spacingLeft=4;spacingRight=4;overflow=hidden;rotatable=0;points=[[0,0.5],[1,0.5]];portConstraint=eastwest;fontStyle=4" parent="o1w42rzj_JhDo4H0_FvO-109" vertex="1">
          <mxGeometry y="81" width="280" height="26" as="geometry" />
        </mxCell>
        <mxCell id="o1w42rzj_JhDo4H0_FvO-113" value="+writeBufferedImage(Image): BufferedImage" style="text;align=left;verticalAlign=top;spacingLeft=4;spacingRight=4;overflow=hidden;rotatable=0;points=[[0,0.5],[1,0.5]];portConstraint=eastwest;rounded=0;shadow=0;html=0;fontStyle=4" parent="o1w42rzj_JhDo4H0_FvO-109" vertex="1">
          <mxGeometry y="107" width="280" height="26" as="geometry" />
        </mxCell>
        <mxCell id="qI4vOjFpDvR_fsoeFRp5-0" value="Command" style="swimlane;fontStyle=2;align=center;verticalAlign=top;childLayout=stackLayout;horizontal=1;startSize=29;horizontalStack=0;resizeParent=1;resizeLast=0;collapsible=1;marginBottom=0;rounded=0;shadow=0;strokeWidth=1;" vertex="1" parent="WIyWlLk6GJQsqaUBKTNV-1">
          <mxGeometry x="-1200" y="530" width="280" height="63" as="geometry">
            <mxRectangle x="550" y="140" width="160" height="26" as="alternateBounds" />
          </mxGeometry>
        </mxCell>
        <mxCell id="qI4vOjFpDvR_fsoeFRp5-1" value="+run(Model): void" style="text;align=left;verticalAlign=top;spacingLeft=4;spacingRight=4;overflow=hidden;rotatable=0;points=[[0,0.5],[1,0.5]];portConstraint=eastwest;fontStyle=0" vertex="1" parent="qI4vOjFpDvR_fsoeFRp5-0">
          <mxGeometry y="29" width="280" height="26" as="geometry" />
        </mxCell>
        <mxCell id="qI4vOjFpDvR_fsoeFRp5-48" style="edgeStyle=orthogonalEdgeStyle;rounded=0;orthogonalLoop=1;jettySize=auto;html=1;exitX=0.5;exitY=0;exitDx=0;exitDy=0;" edge="1" parent="WIyWlLk6GJQsqaUBKTNV-1" source="qI4vOjFpDvR_fsoeFRp5-5">
          <mxGeometry relative="1" as="geometry">
            <mxPoint x="-1170" y="600" as="targetPoint" />
          </mxGeometry>
        </mxCell>
        <mxCell id="qI4vOjFpDvR_fsoeFRp5-5" value="Bluescale" style="swimlane;fontStyle=0;align=center;verticalAlign=top;childLayout=stackLayout;horizontal=1;startSize=29;horizontalStack=0;resizeParent=1;resizeLast=0;collapsible=1;marginBottom=0;rounded=0;shadow=0;strokeWidth=1;" vertex="1" parent="WIyWlLk6GJQsqaUBKTNV-1">
          <mxGeometry x="-1440" y="670" width="280" height="57" as="geometry">
            <mxRectangle x="550" y="140" width="160" height="26" as="alternateBounds" />
          </mxGeometry>
        </mxCell>
        <mxCell id="qI4vOjFpDvR_fsoeFRp5-6" value="+Bluescale(String[])" style="text;align=left;verticalAlign=top;spacingLeft=4;spacingRight=4;overflow=hidden;rotatable=0;points=[[0,0.5],[1,0.5]];portConstraint=eastwest;fontStyle=0" vertex="1" parent="qI4vOjFpDvR_fsoeFRp5-5">
          <mxGeometry y="29" width="280" height="26" as="geometry" />
        </mxCell>
        <mxCell id="qI4vOjFpDvR_fsoeFRp5-56" style="edgeStyle=orthogonalEdgeStyle;rounded=0;orthogonalLoop=1;jettySize=auto;html=1;exitX=0.5;exitY=0;exitDx=0;exitDy=0;entryX=1;entryY=1;entryDx=0;entryDy=0;" edge="1" parent="WIyWlLk6GJQsqaUBKTNV-1" source="qI4vOjFpDvR_fsoeFRp5-8" target="qI4vOjFpDvR_fsoeFRp5-0">
          <mxGeometry relative="1" as="geometry" />
        </mxCell>
        <mxCell id="qI4vOjFpDvR_fsoeFRp5-8" value="Brighten" style="swimlane;fontStyle=0;align=center;verticalAlign=top;childLayout=stackLayout;horizontal=1;startSize=29;horizontalStack=0;resizeParent=1;resizeLast=0;collapsible=1;marginBottom=0;rounded=0;shadow=0;strokeWidth=1;" vertex="1" parent="WIyWlLk6GJQsqaUBKTNV-1">
          <mxGeometry x="-1000" y="669" width="280" height="58" as="geometry">
            <mxRectangle x="550" y="140" width="160" height="26" as="alternateBounds" />
          </mxGeometry>
        </mxCell>
        <mxCell id="qI4vOjFpDvR_fsoeFRp5-9" value="+Brighten(String[])" style="text;align=left;verticalAlign=top;spacingLeft=4;spacingRight=4;overflow=hidden;rotatable=0;points=[[0,0.5],[1,0.5]];portConstraint=eastwest;fontStyle=0" vertex="1" parent="qI4vOjFpDvR_fsoeFRp5-8">
          <mxGeometry y="29" width="280" height="26" as="geometry" />
        </mxCell>
        <mxCell id="qI4vOjFpDvR_fsoeFRp5-50" style="edgeStyle=orthogonalEdgeStyle;rounded=0;orthogonalLoop=1;jettySize=auto;html=1;exitX=0.5;exitY=0;exitDx=0;exitDy=0;" edge="1" parent="WIyWlLk6GJQsqaUBKTNV-1" source="qI4vOjFpDvR_fsoeFRp5-11">
          <mxGeometry relative="1" as="geometry">
            <mxPoint x="-1130" y="600" as="targetPoint" />
            <Array as="points">
              <mxPoint x="-1300" y="850" />
              <mxPoint x="-1130" y="850" />
              <mxPoint x="-1130" y="600" />
            </Array>
          </mxGeometry>
        </mxCell>
        <mxCell id="qI4vOjFpDvR_fsoeFRp5-11" value="HorizontalFlip" style="swimlane;fontStyle=0;align=center;verticalAlign=top;childLayout=stackLayout;horizontal=1;startSize=29;horizontalStack=0;resizeParent=1;resizeLast=0;collapsible=1;marginBottom=0;rounded=0;shadow=0;strokeWidth=1;" vertex="1" parent="WIyWlLk6GJQsqaUBKTNV-1">
          <mxGeometry x="-1440" y="874.5" width="280" height="65.5" as="geometry">
            <mxRectangle x="550" y="140" width="160" height="26" as="alternateBounds" />
          </mxGeometry>
        </mxCell>
        <mxCell id="qI4vOjFpDvR_fsoeFRp5-12" value="+HorizontalFlip(String[])" style="text;align=left;verticalAlign=top;spacingLeft=4;spacingRight=4;overflow=hidden;rotatable=0;points=[[0,0.5],[1,0.5]];portConstraint=eastwest;fontStyle=0" vertex="1" parent="qI4vOjFpDvR_fsoeFRp5-11">
          <mxGeometry y="29" width="280" height="26" as="geometry" />
        </mxCell>
        <mxCell id="qI4vOjFpDvR_fsoeFRp5-55" style="edgeStyle=orthogonalEdgeStyle;rounded=0;orthogonalLoop=1;jettySize=auto;html=1;exitX=0.5;exitY=0;exitDx=0;exitDy=0;" edge="1" parent="WIyWlLk6GJQsqaUBKTNV-1" source="qI4vOjFpDvR_fsoeFRp5-14">
          <mxGeometry relative="1" as="geometry">
            <mxPoint x="-1150" y="600" as="targetPoint" />
            <Array as="points">
              <mxPoint x="-1300" y="750" />
              <mxPoint x="-1150" y="750" />
            </Array>
          </mxGeometry>
        </mxCell>
        <mxCell id="qI4vOjFpDvR_fsoeFRp5-14" value="Grayscale" style="swimlane;fontStyle=0;align=center;verticalAlign=top;childLayout=stackLayout;horizontal=1;startSize=29;horizontalStack=0;resizeParent=1;resizeLast=0;collapsible=1;marginBottom=0;rounded=0;shadow=0;strokeWidth=1;" vertex="1" parent="WIyWlLk6GJQsqaUBKTNV-1">
          <mxGeometry x="-1440" y="770" width="280" height="60" as="geometry">
            <mxRectangle x="550" y="140" width="160" height="26" as="alternateBounds" />
          </mxGeometry>
        </mxCell>
        <mxCell id="qI4vOjFpDvR_fsoeFRp5-15" value="+Grayscale(String[])" style="text;align=left;verticalAlign=top;spacingLeft=4;spacingRight=4;overflow=hidden;rotatable=0;points=[[0,0.5],[1,0.5]];portConstraint=eastwest;fontStyle=0" vertex="1" parent="qI4vOjFpDvR_fsoeFRp5-14">
          <mxGeometry y="29" width="280" height="26" as="geometry" />
        </mxCell>
        <mxCell id="qI4vOjFpDvR_fsoeFRp5-58" style="edgeStyle=orthogonalEdgeStyle;rounded=0;orthogonalLoop=1;jettySize=auto;html=1;exitX=0.5;exitY=0;exitDx=0;exitDy=0;" edge="1" parent="WIyWlLk6GJQsqaUBKTNV-1" source="qI4vOjFpDvR_fsoeFRp5-17">
          <mxGeometry relative="1" as="geometry">
            <mxPoint x="-1030" y="600" as="targetPoint" />
            <Array as="points">
              <mxPoint x="-860" y="850" />
              <mxPoint x="-1030" y="850" />
            </Array>
          </mxGeometry>
        </mxCell>
        <mxCell id="qI4vOjFpDvR_fsoeFRp5-17" value="Intensity" style="swimlane;fontStyle=0;align=center;verticalAlign=top;childLayout=stackLayout;horizontal=1;startSize=29;horizontalStack=0;resizeParent=1;resizeLast=0;collapsible=1;marginBottom=0;rounded=0;shadow=0;strokeWidth=1;" vertex="1" parent="WIyWlLk6GJQsqaUBKTNV-1">
          <mxGeometry x="-1000" y="877.25" width="280" height="60" as="geometry">
            <mxRectangle x="550" y="140" width="160" height="26" as="alternateBounds" />
          </mxGeometry>
        </mxCell>
        <mxCell id="qI4vOjFpDvR_fsoeFRp5-18" value="+Intensity(String[])" style="text;align=left;verticalAlign=top;spacingLeft=4;spacingRight=4;overflow=hidden;rotatable=0;points=[[0,0.5],[1,0.5]];portConstraint=eastwest;fontStyle=0" vertex="1" parent="qI4vOjFpDvR_fsoeFRp5-17">
          <mxGeometry y="29" width="280" height="26" as="geometry" />
        </mxCell>
        <mxCell id="qI4vOjFpDvR_fsoeFRp5-57" style="edgeStyle=orthogonalEdgeStyle;rounded=0;orthogonalLoop=1;jettySize=auto;html=1;" edge="1" parent="WIyWlLk6GJQsqaUBKTNV-1" source="qI4vOjFpDvR_fsoeFRp5-20">
          <mxGeometry relative="1" as="geometry">
            <mxPoint x="-950" y="600" as="targetPoint" />
            <Array as="points">
              <mxPoint x="-860" y="750" />
              <mxPoint x="-1010" y="750" />
              <mxPoint x="-1010" y="600" />
            </Array>
          </mxGeometry>
        </mxCell>
        <mxCell id="qI4vOjFpDvR_fsoeFRp5-20" value="Greenscale" style="swimlane;fontStyle=0;align=center;verticalAlign=top;childLayout=stackLayout;horizontal=1;startSize=29;horizontalStack=0;resizeParent=1;resizeLast=0;collapsible=1;marginBottom=0;rounded=0;shadow=0;strokeWidth=1;" vertex="1" parent="WIyWlLk6GJQsqaUBKTNV-1">
          <mxGeometry x="-1000" y="770" width="280" height="60" as="geometry">
            <mxRectangle x="550" y="140" width="160" height="26" as="alternateBounds" />
          </mxGeometry>
        </mxCell>
        <mxCell id="qI4vOjFpDvR_fsoeFRp5-21" value="+Greenscale(String[])" style="text;align=left;verticalAlign=top;spacingLeft=4;spacingRight=4;overflow=hidden;rotatable=0;points=[[0,0.5],[1,0.5]];portConstraint=eastwest;fontStyle=0" vertex="1" parent="qI4vOjFpDvR_fsoeFRp5-20">
          <mxGeometry y="29" width="280" height="26" as="geometry" />
        </mxCell>
        <mxCell id="qI4vOjFpDvR_fsoeFRp5-51" style="edgeStyle=orthogonalEdgeStyle;rounded=0;orthogonalLoop=1;jettySize=auto;html=1;exitX=0.5;exitY=0;exitDx=0;exitDy=0;" edge="1" parent="WIyWlLk6GJQsqaUBKTNV-1" source="qI4vOjFpDvR_fsoeFRp5-23">
          <mxGeometry relative="1" as="geometry">
            <mxPoint x="-1110" y="600" as="targetPoint" />
            <Array as="points">
              <mxPoint x="-1300" y="970" />
              <mxPoint x="-1110" y="970" />
            </Array>
          </mxGeometry>
        </mxCell>
        <mxCell id="qI4vOjFpDvR_fsoeFRp5-23" value="Load" style="swimlane;fontStyle=0;align=center;verticalAlign=top;childLayout=stackLayout;horizontal=1;startSize=29;horizontalStack=0;resizeParent=1;resizeLast=0;collapsible=1;marginBottom=0;rounded=0;shadow=0;strokeWidth=1;" vertex="1" parent="WIyWlLk6GJQsqaUBKTNV-1">
          <mxGeometry x="-1440" y="990" width="280" height="60" as="geometry">
            <mxRectangle x="550" y="140" width="160" height="26" as="alternateBounds" />
          </mxGeometry>
        </mxCell>
        <mxCell id="qI4vOjFpDvR_fsoeFRp5-24" value="+Load(String[])" style="text;align=left;verticalAlign=top;spacingLeft=4;spacingRight=4;overflow=hidden;rotatable=0;points=[[0,0.5],[1,0.5]];portConstraint=eastwest;fontStyle=0" vertex="1" parent="qI4vOjFpDvR_fsoeFRp5-23">
          <mxGeometry y="29" width="280" height="26" as="geometry" />
        </mxCell>
        <mxCell id="qI4vOjFpDvR_fsoeFRp5-59" style="edgeStyle=orthogonalEdgeStyle;rounded=0;orthogonalLoop=1;jettySize=auto;html=1;exitX=0.5;exitY=0;exitDx=0;exitDy=0;" edge="1" parent="WIyWlLk6GJQsqaUBKTNV-1" source="qI4vOjFpDvR_fsoeFRp5-26">
          <mxGeometry relative="1" as="geometry">
            <mxPoint x="-1040" y="600" as="targetPoint" />
            <Array as="points">
              <mxPoint x="-860" y="960" />
              <mxPoint x="-1040" y="960" />
            </Array>
          </mxGeometry>
        </mxCell>
        <mxCell id="qI4vOjFpDvR_fsoeFRp5-26" value="Luma" style="swimlane;fontStyle=0;align=center;verticalAlign=top;childLayout=stackLayout;horizontal=1;startSize=29;horizontalStack=0;resizeParent=1;resizeLast=0;collapsible=1;marginBottom=0;rounded=0;shadow=0;strokeWidth=1;" vertex="1" parent="WIyWlLk6GJQsqaUBKTNV-1">
          <mxGeometry x="-1000" y="990" width="280" height="60" as="geometry">
            <mxRectangle x="550" y="140" width="160" height="26" as="alternateBounds" />
          </mxGeometry>
        </mxCell>
        <mxCell id="qI4vOjFpDvR_fsoeFRp5-27" value="+Luma(String[])" style="text;align=left;verticalAlign=top;spacingLeft=4;spacingRight=4;overflow=hidden;rotatable=0;points=[[0,0.5],[1,0.5]];portConstraint=eastwest;fontStyle=0" vertex="1" parent="qI4vOjFpDvR_fsoeFRp5-26">
          <mxGeometry y="29" width="280" height="26" as="geometry" />
        </mxCell>
        <mxCell id="qI4vOjFpDvR_fsoeFRp5-52" style="edgeStyle=orthogonalEdgeStyle;rounded=0;orthogonalLoop=1;jettySize=auto;html=1;exitX=0.5;exitY=0;exitDx=0;exitDy=0;" edge="1" parent="WIyWlLk6GJQsqaUBKTNV-1" source="qI4vOjFpDvR_fsoeFRp5-29">
          <mxGeometry relative="1" as="geometry">
            <mxPoint x="-1090" y="600" as="targetPoint" />
            <Array as="points">
              <mxPoint x="-1300" y="1090" />
              <mxPoint x="-1090" y="1090" />
            </Array>
          </mxGeometry>
        </mxCell>
        <mxCell id="qI4vOjFpDvR_fsoeFRp5-29" value="Redscale" style="swimlane;fontStyle=0;align=center;verticalAlign=top;childLayout=stackLayout;horizontal=1;startSize=29;horizontalStack=0;resizeParent=1;resizeLast=0;collapsible=1;marginBottom=0;rounded=0;shadow=0;strokeWidth=1;" vertex="1" parent="WIyWlLk6GJQsqaUBKTNV-1">
          <mxGeometry x="-1440" y="1100" width="280" height="60" as="geometry">
            <mxRectangle x="550" y="140" width="160" height="26" as="alternateBounds" />
          </mxGeometry>
        </mxCell>
        <mxCell id="qI4vOjFpDvR_fsoeFRp5-30" value="+Redscale(String[])" style="text;align=left;verticalAlign=top;spacingLeft=4;spacingRight=4;overflow=hidden;rotatable=0;points=[[0,0.5],[1,0.5]];portConstraint=eastwest;fontStyle=0" vertex="1" parent="qI4vOjFpDvR_fsoeFRp5-29">
          <mxGeometry y="29" width="280" height="26" as="geometry" />
        </mxCell>
        <mxCell id="qI4vOjFpDvR_fsoeFRp5-60" style="edgeStyle=orthogonalEdgeStyle;rounded=0;orthogonalLoop=1;jettySize=auto;html=1;exitX=0.5;exitY=0;exitDx=0;exitDy=0;" edge="1" parent="WIyWlLk6GJQsqaUBKTNV-1" source="qI4vOjFpDvR_fsoeFRp5-32">
          <mxGeometry relative="1" as="geometry">
            <mxPoint x="-1050" y="600" as="targetPoint" />
            <Array as="points">
              <mxPoint x="-860" y="1070" />
              <mxPoint x="-1050" y="1070" />
            </Array>
          </mxGeometry>
        </mxCell>
        <mxCell id="qI4vOjFpDvR_fsoeFRp5-32" value="RGBCombine" style="swimlane;fontStyle=0;align=center;verticalAlign=top;childLayout=stackLayout;horizontal=1;startSize=29;horizontalStack=0;resizeParent=1;resizeLast=0;collapsible=1;marginBottom=0;rounded=0;shadow=0;strokeWidth=1;" vertex="1" parent="WIyWlLk6GJQsqaUBKTNV-1">
          <mxGeometry x="-1000" y="1100" width="280" height="60" as="geometry">
            <mxRectangle x="550" y="140" width="160" height="26" as="alternateBounds" />
          </mxGeometry>
        </mxCell>
        <mxCell id="qI4vOjFpDvR_fsoeFRp5-33" value="+RGBCombine(String[])" style="text;align=left;verticalAlign=top;spacingLeft=4;spacingRight=4;overflow=hidden;rotatable=0;points=[[0,0.5],[1,0.5]];portConstraint=eastwest;fontStyle=0" vertex="1" parent="qI4vOjFpDvR_fsoeFRp5-32">
          <mxGeometry y="29" width="280" height="26" as="geometry" />
        </mxCell>
        <mxCell id="qI4vOjFpDvR_fsoeFRp5-61" style="edgeStyle=orthogonalEdgeStyle;rounded=0;orthogonalLoop=1;jettySize=auto;html=1;exitX=0.5;exitY=0;exitDx=0;exitDy=0;" edge="1" parent="WIyWlLk6GJQsqaUBKTNV-1" source="qI4vOjFpDvR_fsoeFRp5-35">
          <mxGeometry relative="1" as="geometry">
            <mxPoint x="-1060" y="600" as="targetPoint" />
            <Array as="points">
              <mxPoint x="-860" y="1180" />
              <mxPoint x="-1060" y="1180" />
            </Array>
          </mxGeometry>
        </mxCell>
        <mxCell id="qI4vOjFpDvR_fsoeFRp5-35" value="Save" style="swimlane;fontStyle=0;align=center;verticalAlign=top;childLayout=stackLayout;horizontal=1;startSize=29;horizontalStack=0;resizeParent=1;resizeLast=0;collapsible=1;marginBottom=0;rounded=0;shadow=0;strokeWidth=1;" vertex="1" parent="WIyWlLk6GJQsqaUBKTNV-1">
          <mxGeometry x="-1000" y="1200" width="280" height="60" as="geometry">
            <mxRectangle x="550" y="140" width="160" height="26" as="alternateBounds" />
          </mxGeometry>
        </mxCell>
        <mxCell id="qI4vOjFpDvR_fsoeFRp5-36" value="+Save(String[])" style="text;align=left;verticalAlign=top;spacingLeft=4;spacingRight=4;overflow=hidden;rotatable=0;points=[[0,0.5],[1,0.5]];portConstraint=eastwest;fontStyle=0" vertex="1" parent="qI4vOjFpDvR_fsoeFRp5-35">
          <mxGeometry y="29" width="280" height="26" as="geometry" />
        </mxCell>
        <mxCell id="qI4vOjFpDvR_fsoeFRp5-53" style="edgeStyle=orthogonalEdgeStyle;rounded=0;orthogonalLoop=1;jettySize=auto;html=1;" edge="1" parent="WIyWlLk6GJQsqaUBKTNV-1" source="qI4vOjFpDvR_fsoeFRp5-38">
          <mxGeometry relative="1" as="geometry">
            <mxPoint x="-1080" y="600" as="targetPoint" />
            <Array as="points">
              <mxPoint x="-1300" y="1180" />
              <mxPoint x="-1080" y="1180" />
            </Array>
          </mxGeometry>
        </mxCell>
        <mxCell id="qI4vOjFpDvR_fsoeFRp5-38" value="RGBSplit" style="swimlane;fontStyle=0;align=center;verticalAlign=top;childLayout=stackLayout;horizontal=1;startSize=29;horizontalStack=0;resizeParent=1;resizeLast=0;collapsible=1;marginBottom=0;rounded=0;shadow=0;strokeWidth=1;" vertex="1" parent="WIyWlLk6GJQsqaUBKTNV-1">
          <mxGeometry x="-1440" y="1200" width="280" height="60" as="geometry">
            <mxRectangle x="550" y="140" width="160" height="26" as="alternateBounds" />
          </mxGeometry>
        </mxCell>
        <mxCell id="qI4vOjFpDvR_fsoeFRp5-39" value="+RGBSplit(String[])" style="text;align=left;verticalAlign=top;spacingLeft=4;spacingRight=4;overflow=hidden;rotatable=0;points=[[0,0.5],[1,0.5]];portConstraint=eastwest;fontStyle=0" vertex="1" parent="qI4vOjFpDvR_fsoeFRp5-38">
          <mxGeometry y="29" width="280" height="26" as="geometry" />
        </mxCell>
        <mxCell id="qI4vOjFpDvR_fsoeFRp5-54" style="edgeStyle=orthogonalEdgeStyle;rounded=0;orthogonalLoop=1;jettySize=auto;html=1;" edge="1" parent="WIyWlLk6GJQsqaUBKTNV-1" source="qI4vOjFpDvR_fsoeFRp5-41">
          <mxGeometry relative="1" as="geometry">
            <mxPoint x="-1070" y="600" as="targetPoint" />
            <Array as="points">
              <mxPoint x="-1300" y="1280" />
              <mxPoint x="-1070" y="1280" />
              <mxPoint x="-1070" y="600" />
            </Array>
          </mxGeometry>
        </mxCell>
        <mxCell id="qI4vOjFpDvR_fsoeFRp5-41" value="Value" style="swimlane;fontStyle=0;align=center;verticalAlign=top;childLayout=stackLayout;horizontal=1;startSize=29;horizontalStack=0;resizeParent=1;resizeLast=0;collapsible=1;marginBottom=0;rounded=0;shadow=0;strokeWidth=1;" vertex="1" parent="WIyWlLk6GJQsqaUBKTNV-1">
          <mxGeometry x="-1440" y="1300" width="280" height="60" as="geometry">
            <mxRectangle x="550" y="140" width="160" height="26" as="alternateBounds" />
          </mxGeometry>
        </mxCell>
        <mxCell id="qI4vOjFpDvR_fsoeFRp5-42" value="+Value(String[])" style="text;align=left;verticalAlign=top;spacingLeft=4;spacingRight=4;overflow=hidden;rotatable=0;points=[[0,0.5],[1,0.5]];portConstraint=eastwest;fontStyle=0" vertex="1" parent="qI4vOjFpDvR_fsoeFRp5-41">
          <mxGeometry y="29" width="280" height="26" as="geometry" />
        </mxCell>
        <mxCell id="qI4vOjFpDvR_fsoeFRp5-62" style="edgeStyle=orthogonalEdgeStyle;rounded=0;orthogonalLoop=1;jettySize=auto;html=1;" edge="1" parent="WIyWlLk6GJQsqaUBKTNV-1" source="qI4vOjFpDvR_fsoeFRp5-44">
          <mxGeometry relative="1" as="geometry">
            <mxPoint x="-1100" y="600" as="targetPoint" />
          </mxGeometry>
        </mxCell>
        <mxCell id="qI4vOjFpDvR_fsoeFRp5-44" value="VerticalFlip" style="swimlane;fontStyle=0;align=center;verticalAlign=top;childLayout=stackLayout;horizontal=1;startSize=29;horizontalStack=0;resizeParent=1;resizeLast=0;collapsible=1;marginBottom=0;rounded=0;shadow=0;strokeWidth=1;" vertex="1" parent="WIyWlLk6GJQsqaUBKTNV-1">
          <mxGeometry x="-1000" y="1310" width="280" height="60" as="geometry">
            <mxRectangle x="550" y="140" width="160" height="26" as="alternateBounds" />
          </mxGeometry>
        </mxCell>
        <mxCell id="qI4vOjFpDvR_fsoeFRp5-45" value="+VerticalFlip(String[])" style="text;align=left;verticalAlign=top;spacingLeft=4;spacingRight=4;overflow=hidden;rotatable=0;points=[[0,0.5],[1,0.5]];portConstraint=eastwest;fontStyle=0" vertex="1" parent="qI4vOjFpDvR_fsoeFRp5-44">
          <mxGeometry y="29" width="280" height="26" as="geometry" />
        </mxCell>
        <mxCell id="qI4vOjFpDvR_fsoeFRp5-70" value="" style="endArrow=classic;html=1;rounded=0;" edge="1" parent="WIyWlLk6GJQsqaUBKTNV-1">
          <mxGeometry relative="1" as="geometry">
            <mxPoint x="-690" y="180" as="sourcePoint" />
            <mxPoint x="-1110" y="180" as="targetPoint" />
          </mxGeometry>
        </mxCell>
        <mxCell id="qI4vOjFpDvR_fsoeFRp5-72" value="1" style="edgeLabel;resizable=0;html=1;align=left;verticalAlign=bottom;" connectable="0" vertex="1" parent="qI4vOjFpDvR_fsoeFRp5-70">
          <mxGeometry x="-1" relative="1" as="geometry" />
        </mxCell>
        <mxCell id="qI4vOjFpDvR_fsoeFRp5-73" value="1" style="edgeLabel;resizable=0;html=1;align=right;verticalAlign=bottom;" connectable="0" vertex="1" parent="qI4vOjFpDvR_fsoeFRp5-70">
          <mxGeometry x="1" relative="1" as="geometry" />
        </mxCell>
        <mxCell id="qI4vOjFpDvR_fsoeFRp5-74" value="" style="endArrow=classic;html=1;rounded=0;" edge="1" parent="WIyWlLk6GJQsqaUBKTNV-1">
          <mxGeometry relative="1" as="geometry">
            <mxPoint x="-350" y="780" as="sourcePoint" />
            <mxPoint x="-520" y="710" as="targetPoint" />
          </mxGeometry>
        </mxCell>
        <mxCell id="qI4vOjFpDvR_fsoeFRp5-76" value="1" style="edgeLabel;resizable=0;html=1;align=left;verticalAlign=bottom;" connectable="0" vertex="1" parent="qI4vOjFpDvR_fsoeFRp5-74">
          <mxGeometry x="-1" relative="1" as="geometry" />
        </mxCell>
        <mxCell id="qI4vOjFpDvR_fsoeFRp5-77" value="1..*" style="edgeLabel;resizable=0;html=1;align=right;verticalAlign=bottom;" connectable="0" vertex="1" parent="qI4vOjFpDvR_fsoeFRp5-74">
          <mxGeometry x="1" relative="1" as="geometry" />
        </mxCell>
        <mxCell id="qI4vOjFpDvR_fsoeFRp5-78" value="" style="endArrow=classic;html=1;rounded=0;" edge="1" parent="WIyWlLk6GJQsqaUBKTNV-1">
          <mxGeometry relative="1" as="geometry">
            <mxPoint x="-1220" y="560" as="sourcePoint" />
            <mxPoint x="-1260" y="480" as="targetPoint" />
          </mxGeometry>
        </mxCell>
        <mxCell id="qI4vOjFpDvR_fsoeFRp5-80" value="1" style="edgeLabel;resizable=0;html=1;align=left;verticalAlign=bottom;" connectable="0" vertex="1" parent="qI4vOjFpDvR_fsoeFRp5-78">
          <mxGeometry x="-1" relative="1" as="geometry" />
        </mxCell>
        <mxCell id="qI4vOjFpDvR_fsoeFRp5-81" value="1..*" style="edgeLabel;resizable=0;html=1;align=right;verticalAlign=bottom;" connectable="0" vertex="1" parent="qI4vOjFpDvR_fsoeFRp5-78">
          <mxGeometry x="1" relative="1" as="geometry" />
        </mxCell>
      </root>
    </mxGraphModel>
  </diagram>
</mxfile>
